<svg xmlns="http://www.w3.org/2000/svg" width="1080" height="1080" viewBox="0 0 1080 1080"><defs><radialGradient id="gRed" cx="0.5" cy="0.5" r="0.5"><stop offset="0" stop-color="#FF3B3B" stop-opacity="0.55"/><stop offset="0.55" stop-color="#FF3B3B" stop-opacity="0.18"/><stop offset="1" stop-color="#FF3B3B" stop-opacity="0"/></radialGradient><radialGradient id="gWhite" cx="0.5" cy="0.5" r="0.5"><stop offset="0" stop-color="#FFFFFF" stop-opacity="0.30"/><stop offset="1" stop-color="#FFFFFF" stop-opacity="0"/></radialGradient><linearGradient id="ink" x1="0" y1="0" x2="0.8" y2="1"><stop offset="0" stop-color="#0B2B57"/><stop offset="1" stop-color="#06152C"/></linearGradient></defs><rect width="1080" height="1080" fill="url(#ink)"/><line x1="0" y1="0" x2="0" y2="1080" stroke="#2A5EA8" stroke-width="1" opacity="0.1"/><line x1="0" y1="0" x2="1080" y2="0" stroke="#2A5EA8" stroke-width="1" opacity="0.1"/><line x1="40" y1="0" x2="40" y2="1080" stroke="#2A5EA8" stroke-width="1" opacity="0.045"/><line x1="0" y1="40" x2="1080" y2="40" stroke="#2A5EA8" stroke-width="1" opacity="0.045"/><line x1="80" y1="0" x2="80" y2="1080" stroke="#2A5EA8" stroke-width="1" opacity="0.045"/><line x1="0" y1="80" x2="1080" y2="80" stroke="#2A5EA8" stroke-width="1" opacity="0.045"/><line x1="120" y1="0" x2="120" y2="1080" stroke="#2A5EA8" stroke-width="1" opacity="0.045"/><line x1="0" y1="120" x2="1080" y2="120" stroke="#2A5EA8" stroke-width="1" opacity="0.045"/><line x1="160" y1="0" x2="160" y2="1080" stroke="#2A5EA8" stroke-width="1" opacity="0.045"/><line x1="0" y1="160" x2="1080" y2="160" stroke="#2A5EA8" stroke-width="1" opacity="0.045"/><line x1="200" y1="0" x2="200" y2="1080" stroke="#2A5EA8" stroke-width="1" opacity="0.1"/><line x1="0" y1="200" x2="1080" y2="200" stroke="#2A5EA8" stroke-width="1" opacity="0.1"/><line x1="240" y1="0" x2="240" y2="1080" stroke="#2A5EA8" stroke-width="1" opacity="0.045"/><line x1="0" y1="240" x2="1080" y2="240" stroke="#2A5EA8" stroke-width="1" opacity="0.045"/><line x1="280" y1="0" x2="280" y2="1080" stroke="#2A5EA8" stroke-width="1" opacity="0.045"/><line x1="0" y1="280" x2="1080" y2="280" stroke="#2A5EA8" stroke-width="1" opacity="0.045"/><line x1="320" y1="0" x2="320" y2="1080" stroke="#2A5EA8" stroke-width="1" opacity="0.045"/><line x1="0" y1="320" x2="1080" y2="320" stroke="#2A5EA8" stroke-width="1" opacity="0.045"/><line x1="360" y1="0" x2="360" y2="1080" stroke="#2A5EA8" stroke-width="1" opacity="0.045"/><line x1="0" y1="360" x2="1080" y2="360" stroke="#2A5EA8" stroke-width="1" opacity="0.045"/><line x1="400" y1="0" x2="400" y2="1080" stroke="#2A5EA8" stroke-width="1" opacity="0.1"/><line x1="0" y1="400" x2="1080" y2="400" stroke="#2A5EA8" stroke-width="1" opacity="0.1"/><line x1="440" y1="0" x2="440" y2="1080" stroke="#2A5EA8" stroke-width="1" opacity="0.045"/><line x1="0" y1="440" x2="1080" y2="440" stroke="#2A5EA8" stroke-width="1" opacity="0.045"/><line x1="480" y1="0" x2="480" y2="1080" stroke="#2A5EA8" stroke-width="1" opacity="0.045"/><line x1="0" y1="480" x2="1080" y2="480" stroke="#2A5EA8" stroke-width="1" opacity="0.045"/><line x1="520" y1="0" x2="520" y2="1080" stroke="#2A5EA8" stroke-width="1" opacity="0.045"/><line x1="0" y1="520" x2="1080" y2="520" stroke="#2A5EA8" stroke-width="1" opacity="0.045"/><line x1="560" y1="0" x2="560" y2="1080" stroke="#2A5EA8" stroke-width="1" opacity="0.045"/><line x1="0" y1="560" x2="1080" y2="560" stroke="#2A5EA8" stroke-width="1" opacity="0.045"/><line x1="600" y1="0" x2="600" y2="1080" stroke="#2A5EA8" stroke-width="1" opacity="0.1"/><line x1="0" y1="600" x2="1080" y2="600" stroke="#2A5EA8" stroke-width="1" opacity="0.1"/><line x1="640" y1="0" x2="640" y2="1080" stroke="#2A5EA8" stroke-width="1" opacity="0.045"/><line x1="0" y1="640" x2="1080" y2="640" stroke="#2A5EA8" stroke-width="1" opacity="0.045"/><line x1="680" y1="0" x2="680" y2="1080" stroke="#2A5EA8" stroke-width="1" opacity="0.045"/><line x1="0" y1="680" x2="1080" y2="680" stroke="#2A5EA8" stroke-width="1" opacity="0.045"/><line x1="720" y1="0" x2="720" y2="1080" stroke="#2A5EA8" stroke-width="1" opacity="0.045"/><line x1="0" y1="720" x2="1080" y2="720" stroke="#2A5EA8" stroke-width="1" opacity="0.045"/><line x1="760" y1="0" x2="760" y2="1080" stroke="#2A5EA8" stroke-width="1" opacity="0.045"/><line x1="0" y1="760" x2="1080" y2="760" stroke="#2A5EA8" stroke-width="1" opacity="0.045"/><line x1="800" y1="0" x2="800" y2="1080" stroke="#2A5EA8" stroke-width="1" opacity="0.1"/><line x1="0" y1="800" x2="1080" y2="800" stroke="#2A5EA8" stroke-width="1" opacity="0.1"/><line x1="840" y1="0" x2="840" y2="1080" stroke="#2A5EA8" stroke-width="1" opacity="0.045"/><line x1="0" y1="840" x2="1080" y2="840" stroke="#2A5EA8" stroke-width="1" opacity="0.045"/><line x1="880" y1="0" x2="880" y2="1080" stroke="#2A5EA8" stroke-width="1" opacity="0.045"/><line x1="0" y1="880" x2="1080" y2="880" stroke="#2A5EA8" stroke-width="1" opacity="0.045"/><line x1="920" y1="0" x2="920" y2="1080" stroke="#2A5EA8" stroke-width="1" opacity="0.045"/><line x1="0" y1="920" x2="1080" y2="920" stroke="#2A5EA8" stroke-width="1" opacity="0.045"/><line x1="960" y1="0" x2="960" y2="1080" stroke="#2A5EA8" stroke-width="1" opacity="0.045"/><line x1="0" y1="960" x2="1080" y2="960" stroke="#2A5EA8" stroke-width="1" opacity="0.045"/><line x1="1000" y1="0" x2="1000" y2="1080" stroke="#2A5EA8" stroke-width="1" opacity="0.1"/><line x1="0" y1="1000" x2="1080" y2="1000" stroke="#2A5EA8" stroke-width="1" opacity="0.1"/><line x1="1040" y1="0" x2="1040" y2="1080" stroke="#2A5EA8" stroke-width="1" opacity="0.045"/><line x1="0" y1="1040" x2="1080" y2="1040" stroke="#2A5EA8" stroke-width="1" opacity="0.045"/><line x1="1080" y1="0" x2="1080" y2="1080" stroke="#2A5EA8" stroke-width="1" opacity="0.045"/><line x1="0" y1="1080" x2="1080" y2="1080" stroke="#2A5EA8" stroke-width="1" opacity="0.045"/><g stroke="#A9C3E8" stroke-width="1.5" opacity="0.55"><line x1="26" y1="40" x2="54" y2="40"/><line x1="40" y1="26" x2="40" y2="54"/><circle cx="40" cy="40" r="7.700000000000001" fill="none"/></g><g stroke="#A9C3E8" stroke-width="1.5" opacity="0.55"><line x1="1026" y1="40" x2="1054" y2="40"/><line x1="1040" y1="26" x2="1040" y2="54"/><circle cx="1040" cy="40" r="7.700000000000001" fill="none"/></g><g stroke="#A9C3E8" stroke-width="1.5" opacity="0.55"><line x1="26" y1="928" x2="54" y2="928"/><line x1="40" y1="914" x2="40" y2="942"/><circle cx="40" cy="928" r="7.700000000000001" fill="none"/></g><g stroke="#A9C3E8" stroke-width="1.5" opacity="0.55"><line x1="1026" y1="928" x2="1054" y2="928"/><line x1="1040" y1="914" x2="1040" y2="942"/><circle cx="1040" cy="928" r="7.700000000000001" fill="none"/></g><text x="1004" y="46" text-anchor="end" font-family="DejaVu Sans Mono, Liberation Mono, monospace" font-size="15" letter-spacing="1" fill="#A9C3E8" opacity="0.8">WY-EL-26 // SHT 05</text><rect x="0" y="968" width="1080" height="112" fill="#050F20"/><rect x="0" y="968" width="1080" height="3" fill="#FF3B3B"/><line x1="352" y1="980" x2="352" y2="1034" stroke="#28517F" stroke-width="1.5"/><line x1="648" y1="980" x2="648" y2="1034" stroke="#28517F" stroke-width="1.5"/><line x1="912" y1="980" x2="912" y2="1034" stroke="#28517F" stroke-width="1.5"/><text x="40" y="1005.0" font-family="DejaVu Sans Mono, Liberation Mono, monospace" font-size="17" font-weight="bold" fill="#FFFFFF">WEILEY ELECTRICAL</text><text x="40" y="1029.0" font-family="DejaVu Sans Mono, Liberation Mono, monospace" font-size="14" fill="#A9C3E8">DUBBO &#8226; CENTRAL WEST NSW &#8226; EST. 1986</text><text x="500" y="1016.0" text-anchor="middle" font-family="DejaVu Sans, Liberation Sans, sans-serif" font-size="27" font-weight="bold" fill="#FFFFFF">wyelec.com.au</text><text x="780" y="1016.0" text-anchor="middle" font-family="DejaVu Sans, Liberation Sans, sans-serif" font-size="27" font-weight="bold" fill="#FF3B3B">02 6884 9292</text><text x="996" y="1005.0" text-anchor="middle" font-family="DejaVu Sans Mono, Liberation Mono, monospace" font-size="15" fill="#A9C3E8">SHT 05/07</text><text x="996" y="1029.0" text-anchor="middle" font-family="DejaVu Sans Mono, Liberation Mono, monospace" font-size="15" fill="#A9C3E8">REV A</text><text x="520" y="350" font-family="DejaVu Sans, Liberation Sans, sans-serif" font-size="240" font-weight="bold" letter-spacing="8" fill="none" stroke="#A9C3E8" stroke-width="2" opacity="0.08">LOCAL</text><circle cx="830" cy="700" r="4.6" fill="#A9C3E8" opacity="0.14"/><circle cx="830" cy="727" r="4.4" fill="#A9C3E8" opacity="0.14"/><circle cx="830" cy="754" r="4.1" fill="#A9C3E8" opacity="0.14"/><circle cx="830" cy="781" r="3.9" fill="#A9C3E8" opacity="0.14"/><circle cx="830" cy="808" r="3.6" fill="#A9C3E8" opacity="0.14"/><circle cx="830" cy="835" r="3.4" fill="#A9C3E8" opacity="0.14"/><circle cx="830" cy="862" r="3.1" fill="#A9C3E8" opacity="0.14"/><circle cx="830" cy="889" r="2.9" fill="#A9C3E8" opacity="0.14"/><circle cx="857" cy="700" r="4.3" fill="#A9C3E8" opacity="0.14"/><circle cx="857" cy="727" r="4.1" fill="#A9C3E8" opacity="0.14"/><circle cx="857" cy="754" r="3.8" fill="#A9C3E8" opacity="0.14"/><circle cx="857" cy="781" r="3.6" fill="#A9C3E8" opacity="0.14"/><circle cx="857" cy="808" r="3.3" fill="#A9C3E8" opacity="0.14"/><circle cx="857" cy="835" r="3.1" fill="#A9C3E8" opacity="0.14"/><circle cx="857" cy="862" r="2.8" fill="#A9C3E8" opacity="0.14"/><circle cx="857" cy="889" r="2.6" fill="#A9C3E8" opacity="0.14"/><circle cx="884" cy="700" r="4.0" fill="#A9C3E8" opacity="0.14"/><circle cx="884" cy="727" r="3.8" fill="#A9C3E8" opacity="0.14"/><circle cx="884" cy="754" r="3.5" fill="#A9C3E8" opacity="0.14"/><circle cx="884" cy="781" r="3.3" fill="#A9C3E8" opacity="0.14"/><circle cx="884" cy="808" r="3.0" fill="#A9C3E8" opacity="0.14"/><circle cx="884" cy="835" r="2.8" fill="#A9C3E8" opacity="0.14"/><circle cx="884" cy="862" r="2.5" fill="#A9C3E8" opacity="0.14"/><circle cx="884" cy="889" r="2.3" fill="#A9C3E8" opacity="0.14"/><circle cx="911" cy="700" r="3.7" fill="#A9C3E8" opacity="0.14"/><circle cx="911" cy="727" r="3.5" fill="#A9C3E8" opacity="0.14"/><circle cx="911" cy="754" r="3.2" fill="#A9C3E8" opacity="0.14"/><circle cx="911" cy="781" r="3.0" fill="#A9C3E8" opacity="0.14"/><circle cx="911" cy="808" r="2.8" fill="#A9C3E8" opacity="0.14"/><circle cx="911" cy="835" r="2.5" fill="#A9C3E8" opacity="0.14"/><circle cx="911" cy="862" r="2.3" fill="#A9C3E8" opacity="0.14"/><circle cx="911" cy="889" r="2.0" fill="#A9C3E8" opacity="0.14"/><circle cx="938" cy="700" r="3.4" fill="#A9C3E8" opacity="0.14"/><circle cx="938" cy="727" r="3.2" fill="#A9C3E8" opacity="0.14"/><circle cx="938" cy="754" r="3.0" fill="#A9C3E8" opacity="0.14"/><circle cx="938" cy="781" r="2.7" fill="#A9C3E8" opacity="0.14"/><circle cx="938" cy="808" r="2.5" fill="#A9C3E8" opacity="0.14"/><circle cx="938" cy="835" r="2.2" fill="#A9C3E8" opacity="0.14"/><circle cx="938" cy="862" r="2.0" fill="#A9C3E8" opacity="0.14"/><circle cx="938" cy="889" r="1.7" fill="#A9C3E8" opacity="0.14"/><circle cx="965" cy="700" r="3.2" fill="#A9C3E8" opacity="0.14"/><circle cx="965" cy="727" r="2.9" fill="#A9C3E8" opacity="0.14"/><circle cx="965" cy="754" r="2.7" fill="#A9C3E8" opacity="0.14"/><circle cx="965" cy="781" r="2.4" fill="#A9C3E8" opacity="0.14"/><circle cx="965" cy="808" r="2.2" fill="#A9C3E8" opacity="0.14"/><circle cx="965" cy="835" r="1.9" fill="#A9C3E8" opacity="0.14"/><circle cx="965" cy="862" r="1.7" fill="#A9C3E8" opacity="0.14"/><circle cx="965" cy="889" r="1.4" fill="#A9C3E8" opacity="0.14"/><circle cx="992" cy="700" r="2.9" fill="#A9C3E8" opacity="0.14"/><circle cx="992" cy="727" r="2.6" fill="#A9C3E8" opacity="0.14"/><circle cx="992" cy="754" r="2.4" fill="#A9C3E8" opacity="0.14"/><circle cx="992" cy="781" r="2.1" fill="#A9C3E8" opacity="0.14"/><circle cx="992" cy="808" r="1.9" fill="#A9C3E8" opacity="0.14"/><circle cx="992" cy="835" r="1.6" fill="#A9C3E8" opacity="0.14"/><circle cx="992" cy="862" r="1.4" fill="#A9C3E8" opacity="0.14"/><circle cx="992" cy="889" r="1.1" fill="#A9C3E8" opacity="0.14"/><circle cx="94.6" cy="94.6" r="57.6" fill="url(#gRed)" opacity="0.8"/><circle cx="94.6" cy="94.6" r="29.7" fill="#FF3B3B"/><circle cx="94.6" cy="94.6" r="36.0" fill="none" stroke="#FF3B3B" stroke-width="1.4400000000000002" opacity="0.6"/><g transform="translate(94.6,94.6) scale(0.36000000000000004) translate(-50,-75)"><path d="M58,4 L20,84 L46,84 L32,146 L92,60 L60,60 Z" fill="#FFFFFF" opacity="1.0"/></g><text x="148.60000000000002" y="91.0" font-family="DejaVu Sans, Liberation Sans, sans-serif" font-size="27.900000000000002" font-weight="bold" letter-spacing="1.8" fill="#FFFFFF">WEILEY</text><text x="149.5" y="118.0" font-family="DejaVu Sans Mono, Liberation Mono, monospace" font-size="15.3" font-weight="bold" letter-spacing="7.38" fill="#FF3B3B">ELECTRICAL</text><text x="64" y="216" font-family="DejaVu Sans Mono, Liberation Mono, monospace" font-size="21" font-weight="bold" letter-spacing="3" fill="#FF3B3B">[ WHO WE WORK WITH ]</text><text x="60" y="322" font-family="DejaVu Sans, Liberation Sans, sans-serif" font-size="78" font-weight="bold" fill="#FFFFFF">TRUSTED ACROSS</text><text x="60" y="404" font-family="DejaVu Sans, Liberation Sans, sans-serif" font-size="78" font-weight="bold" fill="#FF3B3B">THE CENTRAL WEST</text><text x="64" y="462" font-family="DejaVu Sans Mono, Liberation Mono, monospace" font-size="21" letter-spacing="1.5" fill="#A9C3E8">FROM THE FACTORY FLOOR TO THE SHOPFRONT — WE POWER THEM ALL</text><g><rect x="64" y="560" width="289" height="63" rx="9" fill="#0C2750" stroke="#28517F" stroke-width="2"/><circle cx="64" cy="591.5" r="5" fill="#FF3B3B"/><circle cx="353" cy="591.5" r="5" fill="#FF3B3B"/><text x="208" y="601" text-anchor="middle" font-family="DejaVu Sans, Liberation Sans, sans-serif" font-size="27" font-weight="bold" letter-spacing="1" fill="#FFFFFF">RETAIL STORES</text></g><g><rect x="378.64" y="560" width="220" height="63" rx="9" fill="#0C2750" stroke="#28517F" stroke-width="2"/><circle cx="378.64" cy="591.5" r="5" fill="#FF3B3B"/><circle cx="598" cy="591.5" r="5" fill="#FF3B3B"/><text x="488" y="601" text-anchor="middle" font-family="DejaVu Sans, Liberation Sans, sans-serif" font-size="27" font-weight="bold" letter-spacing="1" fill="#FFFFFF">WORKSHOPS</text></g><g><rect x="624.16" y="560" width="237" height="63" rx="9" fill="#0C2750" stroke="#28517F" stroke-width="2"/><circle cx="624.16" cy="591.5" r="5" fill="#FF3B3B"/><circle cx="861" cy="591.5" r="5" fill="#FF3B3B"/><text x="743" y="601" text-anchor="middle" font-family="DejaVu Sans, Liberation Sans, sans-serif" font-size="27" font-weight="bold" letter-spacing="1" fill="#FFFFFF">WAREHOUSES</text></g><g><rect x="64" y="653" width="185" height="63" rx="9" fill="#0C2750" stroke="#28517F" stroke-width="2"/><circle cx="64" cy="684.5" r="5" fill="#FF3B3B"/><circle cx="249" cy="684.5" r="5" fill="#FF3B3B"/><text x="156" y="694" text-anchor="middle" font-family="DejaVu Sans, Liberation Sans, sans-serif" font-size="27" font-weight="bold" letter-spacing="1" fill="#FFFFFF">OFFICES</text></g><g><rect x="274.96000000000004" y="653" width="254" height="63" rx="9" fill="#0C2750" stroke="#28517F" stroke-width="2"/><circle cx="274.96000000000004" cy="684.5" r="5" fill="#FF3B3B"/><circle cx="529" cy="684.5" r="5" fill="#FF3B3B"/><text x="402" y="694" text-anchor="middle" font-family="DejaVu Sans, Liberation Sans, sans-serif" font-size="27" font-weight="bold" letter-spacing="1" fill="#FFFFFF">HOSPITALITY</text></g><g><rect x="555.0400000000001" y="653" width="254" height="63" rx="9" fill="#0C2750" stroke="#28517F" stroke-width="2"/><circle cx="555.0400000000001" cy="684.5" r="5" fill="#FF3B3B"/><circle cx="809" cy="684.5" r="5" fill="#FF3B3B"/><text x="682" y="694" text-anchor="middle" font-family="DejaVu Sans, Liberation Sans, sans-serif" font-size="27" font-weight="bold" letter-spacing="1" fill="#FFFFFF">AGRICULTURE</text></g><g><rect x="64" y="746" width="358" height="63" rx="9" fill="#0C2750" stroke="#28517F" stroke-width="2"/><circle cx="64" cy="777.5" r="5" fill="#FF3B3B"/><circle cx="422" cy="777.5" r="5" fill="#FF3B3B"/><text x="243" y="787" text-anchor="middle" font-family="DejaVu Sans, Liberation Sans, sans-serif" font-size="27" font-weight="bold" letter-spacing="1" fill="#FFFFFF">INDUSTRIAL PLANTS</text></g><g><rect x="447.76" y="746" width="220" height="63" rx="9" fill="#0C2750" stroke="#28517F" stroke-width="2"/><circle cx="447.76" cy="777.5" r="5" fill="#FF3B3B"/><circle cx="667" cy="777.5" r="5" fill="#FF3B3B"/><text x="558" y="787" text-anchor="middle" font-family="DejaVu Sans, Liberation Sans, sans-serif" font-size="27" font-weight="bold" letter-spacing="1" fill="#FFFFFF">EDUCATION</text></g><path d="M64,902 h15 v-22 h19 v22 h15 v-22 h19 v22 h15 v-22 h19 v22 h15 v-22 h19 v22 h15 v-22 h19 v22 h15 v-22 h19 v22 h15 v-22 h19 v22 h15 v-22 h19 v22 h15 v-22 h19 v22 h15 v-22 h19 v22 h15 v-22 h19 v22 h15 v-22 h19 v22 L484,902" fill="none" stroke="#FF3B3B" stroke-width="3" opacity="0.9" stroke-linejoin="round"/><g stroke="#A9C3E8" stroke-width="1.5" opacity="0.75"><line x1="560" y1="902" x2="1016" y2="902"/><line x1="560" y1="893" x2="560" y2="911"/><line x1="1016" y1="893" x2="1016" y2="911"/></g><rect x="634" y="889" width="309" height="26" fill="#06152C"/><text x="788" y="908" text-anchor="middle" font-family="DejaVu Sans Mono, Liberation Mono, monospace" font-size="16" letter-spacing="2" fill="#A9C3E8">SERVICE AREA: CENTRAL WEST</text></svg>